<svg xmlns="http://www.w3.org/2000/svg" viewBox="0 0 370 370">
    <g id="chernika-favicon" fill="#032442">
        <path d="M166.24 180.71c4.52,-4.5 4.47,-15.53 14.4,-16.4 2.01,-0.17 4.75,0.56 6.22,1.46 4.84,2.99 7.12,11.7 9.6,13.27 4.34,2.74 18.03,-4.22 23.35,5.86 4.57,8.65 -5.77,15.74 -7.72,21.46 1.62,5.08 9.8,10.82 5.48,18.48 -4.85,8.6 -17.83,4.64 -19.87,5.69 -3.76,4.08 -7.48,13.69 -13.71,14.21 -8.23,0.69 -9.83,-8.82 -14.17,-13.52 -9.12,-1.68 -15.1,3.23 -20.97,-4.57 -4.78,-6.36 2.2,-13.49 3.79,-18.15 -1.89,-6.38 -11.95,-10.84 -8.94,-20.4 1.2,-3.82 4.45,-6 8.23,-6.78 5.23,-1.08 9.32,-0.12 14.31,-0.61zm-89.96 57.82c0.91,14.69 6.42,30.64 12.31,41.15 7.5,13.39 6.81,10.9 13.68,20.01 1.63,2.16 1.07,1.31 3.32,3.05 3.12,2.41 1.03,2.38 6.42,6.45l15.38 11.1c17.14,11.19 44.67,15.64 65.32,14.07 22.01,-1.67 41.7,-9.2 57.53,-21.82l7.33 -6.27c2.7,-2.44 3.89,-4.11 6.29,-6.63 1.93,-2.03 1.68,-1.45 3.33,-3.81l7.99 -11.3c22.54,-36.07 18.82,-90.36 -8.4,-121.48l-9.76 -10.32c-11.74,-10.61 -20.56,-16.83 -36.79,-22.52 -13.05,-4.58 -31.31,-7.07 -46.11,-5.67 -40.28,3.83 -65.58,22.22 -82.97,49.63 -11.72,18.47 -16.28,41.52 -14.87,64.36z"/>
        <path d="M61.42 35.76c0.97,16.93 8.68,30.11 17.15,42.31 11.13,16.03 30.76,28.72 50.75,33.69 11.43,2.83 33.48,5.24 45.24,2.82 -2.74,-14.11 -5.08,-26.16 -11.77,-36.32 -13.22,-20.06 -33.64,-33.44 -57.97,-39.28 -11.89,-2.85 -30.96,-6.04 -43.4,-3.22z"/>
        <path d="M190.09 101.97l1.01 0.63c-0.94,3.71 -2.27,8.06 -1.6,11.72l19.65 -1.17 0.71 0.77c29.68,-1.91 58.87,-17.85 72.58,-45.24 3.93,-7.85 8.45,-20.95 8.23,-31.05 -6.75,-4.41 -28.5,0.28 -36.24,2.38 -11.63,3.17 -26.39,9.87 -34.97,17.21 -1.04,0.9 -1.83,1.29 -2.9,2.18 -12.07,10.17 -23.76,26.18 -26.47,42.57z"/>
        <path d="M198.81 207.79c1.87,-9.8 -5.47,-16.78 -12.73,-18.4 -4.87,-1.09 -10.3,-0.29 -13.74,2.36 -2.63,2.03 -5.4,5.56 -6.04,9.66 -3.61,23.38 28.77,26 32.51,6.38z"/>
        <path d="M209.86 113.92l-0.71 -0.77 -19.65 1.17c-0.67,-3.66 0.66,-8.01 1.6,-11.72l-1.01 -0.63 -2.51 13.63 22.28 -1.68z"/>
    </g>
</svg>
